<?xml version="1.0" encoding="UTF-8"?>
<!-- Created with Inkscape (http://www.inkscape.org/) -->
<svg width="59.465mm" height="105.83mm" version="1.1" viewBox="0 0 59.465 105.83" xmlns="http://www.w3.org/2000/svg" xmlns:cc="http://creativecommons.org/ns#" xmlns:dc="http://purl.org/dc/elements/1.1/" xmlns:rdf="http://www.w3.org/1999/02/22-rdf-syntax-ns#">
 <metadata>
  <rdf:RDF>
   <cc:Work rdf:about="">
    <dc:format>image/svg+xml</dc:format>
    <dc:type rdf:resource="http://purl.org/dc/dcmitype/StillImage"/>
    <dc:title/>
   </cc:Work>
  </rdf:RDF>
 </metadata>
 <g transform="translate(162.31 -87.412)">
  <g transform="matrix(1.1886 0 0 1.1886 31.584 -38.179)">
   <polygon class="cls-1" transform="matrix(.93426 0 0 .93426 -227.45 106.86)" points="80 7.2 80 64.43 86.09 71.34 105.15 71.34 111.23 64.43 111.23 7.2 105.15 0.29 86.09 0.29" fill="#fff"/>
   <g>
    <path class="cls-2" d="m-146.17 171.19-4.4938-5.0917v-2.6159l8.1561-22.058h3.3447v29.766zm1.2145-31.961h-5.7177v-14.948zm-5.7177 2.1955h5.8485l-5.8485 15.789zm4.5032-31.98h7.007v29.784h-3.4568l-8.0533-20.974v-3.7371z" fill="#24428a" stroke-width=".93426"/>
    <path class="cls-3" d="m-137.07 171.19v-29.766h3.3353l8.1654 22.077v2.6159l-4.4938 5.0917zm11.501-46.872v14.948h-5.7177zm0 32.895-5.8485-15.789h5.8485zm0-42.668v3.737l-8.044 20.974h-3.4568v-29.812h7.007z" fill="#cf112b" stroke-width=".93426"/>
    <path d="m-147.93 190.91v-1.1462h-2.5644v-0.97785h2.9789v-1.3534h-3.5908l-0.84833 0.84834v4.1154l0.84833 0.8451h3.5908v-1.3535h-2.9789v-0.97784zm29.802 0v-1.1462h-2.5612v-0.97785h2.9756v-1.3534h-3.5908l-0.84833 0.84834v4.1154l0.84833 0.8451h3.5908v-1.3535h-2.9756v-0.97784zm-25.245 0.53425h1.9589v1.797h1.457v-4.9637l-0.84509-0.84511h-3.1861l-0.84508 0.84511v4.9637h1.4603zm1.9589-1.2434h-1.9589v-1.4668h1.9589zm7.5493 1.6384h-1.9492v-2.9951h3.0954v-1.4118h-3.7106l-0.84509 0.84834v4.1154l0.84509 0.8451h3.1894l0.84509-0.8451v-2.3248h-1.47zm-20.773 1.402v-1.4117h-2.4284v-4.3971h-1.4603v5.8088zm24.926-5.8088v5.8088h4.0312l0.8451-0.8451v-4.9637h-1.4668v4.4068h-1.9492v-4.4068z" fill="#24428a" stroke-width=".32379"/>
    <path d="m-115.09 185.45c-0.64973-1.0601-2.5192-4.1378-2.7129-4.457l3.8813-4.6507v-0.29637h-3.3741l-2.7585 3.3513c0.17097-1.2482 0.45595-3.3684 0.45595-3.3684h-2.9979l-1.3109 9.7688h3.0207s0.32487-2.4109 0.47305-3.5507l2.0632 3.5507h3.2829v-0.36476zm-14.784-2.2c0 0.0627-0.0513-0.0797-0.0912 0.18246h5.9274l-0.37047 2.4052h-8.8398l0.56994-3.2715c0.14818-0.98029 0.87771-1.2311 1.7098-1.5274l4.3316-1.3109c0.0342-0.18245 0.13679-0.86061 0.19378-1.2596h-2.8497c-0.017 0.17664-0.14247 0.92901-0.14247 0.92901h-2.8953l0.25078-1.6585a2.2 2.2 0 0 1 2.1886-1.6756h4.6394a1.9093 1.9093 0 0 1 1.4534 0.61554 1.5161 1.5161 0 0 1 0.37616 0.84922 1.2311 1.2311 0 0 1 0 0.38186l-0.37616 2.4451a1.7098 1.7098 0 0 1-1.3109 1.3679l-4.759 1.5274z" fill="#cf112b" stroke-width=".56994"/>
    <path d="m-162.31 175.87v10.213h2.5476v-7.9621h3.4596v7.9621h2.542v-8.6802l-1.5332-1.5332h-6.0414zm25.203 4.8502h-3.4596v-2.5989h3.4596zm1.0088-4.8502h-5.4772l-1.5388 1.5332v8.6802h2.542v-3.1404h3.4596v3.1404h2.5476v-8.6802zm-10.607 4.0466h-3.4596v-1.7953h3.4596zm0 3.9098h-3.4596v-1.9606h3.4596zm0.9917 2.2798 1.5502-1.5788v-2.4736l-1.0772-1.0829 1.0772-1.0715v-2.485l-1.5502-1.5445h-6.9989v10.213h6.9989z" fill="#24428a" stroke-width=".56994"/>
   </g>
  </g>
 </g>
</svg>
